<svg xmlns="http://www.w3.org/2000/svg" viewBox="0 0 64 64" fill="none" stroke="currentColor" stroke-linecap="round" stroke-linejoin="round">
  <!-- DNA double helix -->
  <path d="M22 4 C26 14 42 18 42 28 C42 38 26 42 22 52 C20 56 22 60 26 62" stroke-width="3"/>
  <path d="M42 4 C38 14 22 18 22 28 C22 38 38 42 42 52 C44 56 42 60 38 62" stroke-width="3"/>
  <!-- rungs -->
  <line x1="25" y1="12" x2="39" y2="12" stroke-width="2"/>
  <line x1="24" y1="22" x2="40" y2="22" stroke-width="2"/>
  <line x1="24" y1="34" x2="40" y2="34" stroke-width="2"/>
  <line x1="25" y1="44" x2="39" y2="44" stroke-width="2"/>
  <line x1="27" y1="54" x2="37" y2="54" stroke-width="2"/>
</svg>
